<?xml version="1.0" encoding="UTF-8" standalone="no"?>
<!-- Created with Inkscape (http://www.inkscape.org/) -->

<svg
   width="120"
   height="120"
   viewBox="0 0 120 120"
   version="1.1"
   id="svg1"
   xmlns="http://www.w3.org/2000/svg"
   xmlns:svg="http://www.w3.org/2000/svg">
  <defs
     id="defs1" />
  <g
     id="layer1">
    <g
       id="g18"
       transform="matrix(2.9303724,0,0,2.9303724,-312.74128,-487.08288)">
      <rect
         style="fill:#ff0000;fill-rule:nonzero;stroke-width:0.218109;paint-order:markers stroke fill"
         id="rect52-4-1-8-29"
         width="41.217434"
         height="41.217434"
         x="106.45706"
         y="166.21877" />
      <g
         id="g7"
         transform="translate(-0.10945936,-10.988326)"
         style="stroke:none">
        <path
           d="m 123.88718,193.10594 a 4.6334759,4.6324587 45 0 1 3.28737,-1.35659 l 2.8e-4,2.31646 a 2.316738,2.3162293 45 0 0 -1.64949,0.67829 2.316738,2.3162293 45 0 0 4.3e-4,3.276 2.316738,2.3162293 45 0 0 1.64954,0.67863 l 1e-4,0.55058 2.4e-4,1.76592 v 0.55059 a 4.6334759,4.6324587 45 0 0 -2.97771,1.08513 4.6334759,4.6324587 45 0 0 -0.30965,0.27145 4.6334759,4.6324587 45 0 0 -0.0448,0.0454 4.6334759,4.6324587 45 0 0 -0.23704,0.27745 4.6334759,4.6324587 45 0 0 -1.07477,2.96456 4.6334759,4.6324587 45 0 0 1.08201,2.95089 4.6334759,4.6324587 45 0 0 0.27529,0.31378 4.6334759,4.6324587 45 0 0 0.006,0.006 4.6334759,4.6324587 45 0 0 0.32098,0.28047 4.6334759,4.6324587 45 0 0 2.96092,1.07103 l 4e-5,0.57366 2e-4,1.74284 a 6.950214,6.9486881 45 0 1 -2.96096,-0.67253 6.950214,6.9486881 45 0 1 -1.959,-1.35764 6.950214,6.9486881 45 0 1 -4e-5,-4e-5 6.950214,6.9486881 45 0 1 -0.006,-0.006 6.950214,6.9486881 45 0 1 -1.35591,-1.94864 6.950214,6.9486881 45 0 1 -0.68007,-2.9541 6.950214,6.9486881 45 0 1 0.67253,-2.96182 6.950214,6.9486881 45 0 1 1.31752,-1.91821 6.950214,6.9486881 45 0 1 0.0391,-0.0395 6.950214,6.9486881 45 0 1 0.006,-0.006 6.950214,6.9486881 45 0 1 1.94753,-1.35482 4.6334759,4.6324587 45 0 1 -0.3097,-0.2715 4.6334759,4.6324587 45 0 1 -7.7e-4,-6.55198 z"
           style="fill:#ffffff;stroke:none;stroke-width:0.0695021"
           id="path7" />
        <path
           d="m 130.46331,202.52569 a 4.6334759,4.6324587 45 0 1 -3.28737,1.35659 l -2.8e-4,-2.31646 a 2.316738,2.3162293 45 0 0 1.64949,-0.67829 2.316738,2.3162293 45 0 0 -4.3e-4,-3.276 2.316738,2.3162293 45 0 0 -1.64954,-0.67863 l -1e-4,-0.55058 -2.5e-4,-1.76593 v -0.55058 a 4.6334759,4.6324587 45 0 0 2.97772,-1.08513 4.6334759,4.6324587 45 0 0 0.30965,-0.27145 4.6334759,4.6324587 45 0 0 0.0448,-0.0454 4.6334759,4.6324587 45 0 0 0.23704,-0.27745 4.6334759,4.6324587 45 0 0 1.07477,-2.96456 4.6334759,4.6324587 45 0 0 -1.08202,-2.95089 4.6334759,4.6324587 45 0 0 -0.27529,-0.31378 4.6334759,4.6324587 45 0 0 -0.006,-0.006 4.6334759,4.6324587 45 0 0 -0.32098,-0.28047 4.6334759,4.6324587 45 0 0 -2.96091,-1.07103 l -4e-5,-0.57367 -2.1e-4,-1.74284 a 6.950214,6.9486881 45 0 1 2.96097,0.67254 6.950214,6.9486881 45 0 1 1.959,1.35764 6.950214,6.9486881 45 0 1 3e-5,4e-5 6.950214,6.9486881 45 0 1 0.006,0.006 6.950214,6.9486881 45 0 1 1.35591,1.94863 6.950214,6.9486881 45 0 1 0.68007,2.9541 6.950214,6.9486881 45 0 1 -0.67253,2.96183 6.950214,6.9486881 45 0 1 -1.31752,1.91821 6.950214,6.9486881 45 0 1 -0.0391,0.0395 6.950214,6.9486881 45 0 1 -0.006,0.006 6.950214,6.9486881 45 0 1 -1.94754,1.35481 4.6334759,4.6324587 45 0 1 0.30971,0.2715 4.6334759,4.6324587 45 0 1 7.7e-4,6.55199 z"
           style="fill:#ffffff;stroke:none;stroke-width:0.0695021"
           id="path7-2" />
      </g>
    </g>
  </g>
</svg>
